<mxfile host="app.diagrams.net" agent="Mozilla/5.0 (Windows NT 10.0; Win64; x64) AppleWebKit/537.36 (KHTML, like Gecko) Chrome/131.0.0.0 Safari/537.36" version="24.8.6">
  <diagram name="Page-1" id="hlFz1UYhofPjHulfXwUA">
    <mxGraphModel dx="794" dy="412" grid="1" gridSize="10" guides="1" tooltips="1" connect="1" arrows="1" fold="1" page="1" pageScale="1" pageWidth="850" pageHeight="1100" math="0" shadow="0">
      <root>
        <mxCell id="0" />
        <mxCell id="1" parent="0" />
        <mxCell id="FBzPnQI0qIL7MLcnvGNY-1" value="Smartphone" style="swimlane;fontStyle=1;align=center;verticalAlign=top;childLayout=stackLayout;horizontal=1;startSize=26;horizontalStack=0;resizeParent=1;resizeParentMax=0;resizeLast=0;collapsible=1;marginBottom=0;whiteSpace=wrap;html=1;" vertex="1" parent="1">
          <mxGeometry x="320" y="150" width="200" height="282" as="geometry" />
        </mxCell>
        <mxCell id="FBzPnQI0qIL7MLcnvGNY-2" value="+ brand: String&lt;div&gt;+ model: String&lt;/div&gt;&lt;div&gt;+ storage: int&lt;/div&gt;&lt;div&gt;+ colour: String&lt;/div&gt;&lt;div&gt;+ price: float&lt;/div&gt;" style="text;strokeColor=none;fillColor=none;align=left;verticalAlign=top;spacingLeft=4;spacingRight=4;overflow=hidden;rotatable=0;points=[[0,0.5],[1,0.5]];portConstraint=eastwest;whiteSpace=wrap;html=1;" vertex="1" parent="FBzPnQI0qIL7MLcnvGNY-1">
          <mxGeometry y="26" width="200" height="174" as="geometry" />
        </mxCell>
        <mxCell id="FBzPnQI0qIL7MLcnvGNY-3" value="" style="line;strokeWidth=1;fillColor=none;align=left;verticalAlign=middle;spacingTop=-1;spacingLeft=3;spacingRight=3;rotatable=0;labelPosition=right;points=[];portConstraint=eastwest;strokeColor=inherit;" vertex="1" parent="FBzPnQI0qIL7MLcnvGNY-1">
          <mxGeometry y="200" width="200" height="8" as="geometry" />
        </mxCell>
        <mxCell id="FBzPnQI0qIL7MLcnvGNY-4" value="+ &lt;span class=&quot;hljs-built_in&quot;&gt;makeCall&lt;/span&gt;(number: &lt;span class=&quot;hljs-type&quot;&gt;String&lt;/span&gt;): &lt;span class=&quot;hljs-type&quot;&gt;void&lt;/span&gt;&amp;nbsp;&amp;nbsp;&lt;div&gt;+ &lt;span class=&quot;hljs-built_in&quot;&gt;takePhoto&lt;/span&gt;(): &lt;span class=&quot;hljs-type&quot;&gt;void&lt;/span&gt;&amp;nbsp;&lt;/div&gt;&lt;div&gt;+ &lt;span class=&quot;hljs-built_in&quot;&gt;turnoff&lt;/span&gt;(): &lt;span class=&quot;hljs-type&quot;&gt;void&lt;/span&gt;&lt;/div&gt;" style="text;strokeColor=none;fillColor=none;align=left;verticalAlign=top;spacingLeft=4;spacingRight=4;overflow=hidden;rotatable=0;points=[[0,0.5],[1,0.5]];portConstraint=eastwest;whiteSpace=wrap;html=1;" vertex="1" parent="FBzPnQI0qIL7MLcnvGNY-1">
          <mxGeometry y="208" width="200" height="74" as="geometry" />
        </mxCell>
      </root>
    </mxGraphModel>
  </diagram>
</mxfile>
